<svg xmlns="http://www.w3.org/2000/svg" width="1024" height="1024" viewBox="0 0 1024 1024">
  <defs>
    <linearGradient id="bg4" x1="0" y1="0" x2="1" y2="1">
      <stop offset="0%" stop-color="#ffe4f1"/>
      <stop offset="55%" stop-color="#ede9fe"/>
      <stop offset="100%" stop-color="#dbeafe"/>
    </linearGradient>
    <linearGradient id="screenGlow" x1="0" y1="0" x2="1" y2="1">
      <stop offset="0%" stop-color="#d1fae5"/>
      <stop offset="100%" stop-color="#bfdbfe"/>
    </linearGradient>
  </defs>
  <rect width="1024" height="1024" fill="url(#bg4)"/>
  <circle cx="512" cy="306" r="146" fill="#ffd9c7"/>
  <path d="M362 294q38-144 150-144 121 0 154 144-30-18-68-22-62-6-110 8-58 17-126 14z" fill="#9333ea"/>
  <path d="M408 222q40-40 104-40 66 0 104 40" fill="none" stroke="#f472b6" stroke-width="18" stroke-linecap="round"/>
  <circle cx="456" cy="318" r="11" fill="#2d1b3d"/>
  <circle cx="568" cy="318" r="11" fill="#2d1b3d"/>
  <path d="M454 380q58 35 116 0" fill="none" stroke="#db2777" stroke-width="8" stroke-linecap="round"/>
  <circle cx="408" cy="352" r="16" fill="#f9a8d4" opacity="0.7"/>
  <circle cx="616" cy="352" r="16" fill="#f9a8d4" opacity="0.7"/>
  <path d="M334 540q40-82 178-82 138 0 178 82v178H334z" fill="#c084fc"/>
  <rect x="246" y="614" width="532" height="232" rx="34" fill="#4338ca"/>
  <rect x="282" y="646" width="460" height="166" rx="20" fill="url(#screenGlow)"/>
  <text x="512" y="694" text-anchor="middle" font-family="Arial, sans-serif" font-size="48" fill="#1d4ed8">Hoi daar!</text>
  <text x="512" y="744" text-anchor="middle" font-family="Arial, sans-serif" font-size="36" fill="#7c3aed">Ik ben Clawdy op avontuur</text>
  <text x="512" y="784" text-anchor="middle" font-family="Arial, sans-serif" font-size="26" fill="#0f766e">met pastel pixels en regenboog-code</text>
  <rect x="466" y="850" width="92" height="22" rx="11" fill="#64748b"/>
  <rect x="396" y="872" width="232" height="18" rx="9" fill="#94a3b8"/>
  <path d="M168 214c40-34 86-34 126 0" fill="none" stroke="#fde68a" stroke-width="18" stroke-linecap="round"/>
  <path d="M744 188c48-30 96-28 140 8" fill="none" stroke="#93c5fd" stroke-width="18" stroke-linecap="round"/>
  <circle cx="150" cy="344" r="22" fill="#f9a8d4"/>
  <circle cx="862" cy="332" r="26" fill="#fde68a"/>
  <circle cx="830" cy="430" r="18" fill="#a7f3d0"/>
  <path d="M130 470c28 18 44 18 72 0" fill="none" stroke="#c4b5fd" stroke-width="14" stroke-linecap="round"/>
  <path d="M782 500c32 20 54 20 86 0" fill="none" stroke="#f9a8d4" stroke-width="14" stroke-linecap="round"/>
  <text x="512" y="948" text-anchor="middle" font-family="Arial, sans-serif" font-size="34" fill="#7c3aed">nieuwe Clawdy regenboogterminal 🌈</text>
</svg>
