<svg xmlns="http://www.w3.org/2000/svg" width="1024" height="1024" viewBox="0 0 1024 1024">
  <defs>
    <linearGradient id="bg" x1="0" y1="0" x2="1" y2="1">
      <stop offset="0%" stop-color="#ffe8f3"/>
      <stop offset="100%" stop-color="#e7f4ff"/>
    </linearGradient>
  </defs>
  <rect width="1024" height="1024" fill="url(#bg)"/>
  <circle cx="512" cy="320" r="150" fill="#ffd9c7"/>
  <path d="M360 310q40-150 152-150 113 0 154 147-29-23-63-27-54-6-97 6-62 17-146 24z" fill="#8b5cf6"/>
  <circle cx="455" cy="328" r="12" fill="#2d1b3d"/>
  <circle cx="569" cy="328" r="12" fill="#2d1b3d"/>
  <path d="M455 388q57 38 114 0" fill="none" stroke="#d05b7e" stroke-width="8" stroke-linecap="round"/>
  <circle cx="405" cy="360" r="16" fill="#ffb3c7" opacity="0.7"/>
  <circle cx="619" cy="360" r="16" fill="#ffb3c7" opacity="0.7"/>
  <path d="M338 540q39-85 174-85 138 0 175 85v174H338z" fill="#8b5cf6"/>
  <rect x="270" y="610" width="484" height="230" rx="26" fill="#374151"/>
  <rect x="300" y="638" width="424" height="168" rx="18" fill="#d1fae5"/>
  <text x="512" y="706" text-anchor="middle" font-family="Arial, sans-serif" font-size="54" fill="#065f46">Hallo!</text>
  <text x="512" y="760" text-anchor="middle" font-family="Arial, sans-serif" font-size="40" fill="#065f46">Ik ben Clawdy 🐾</text>
  <rect x="458" y="842" width="108" height="22" rx="11" fill="#6b7280"/>
  <rect x="398" y="862" width="228" height="20" rx="10" fill="#9ca3af"/>
  <circle cx="760" cy="190" r="44" fill="#fde68a"/>
  <circle cx="150" cy="175" r="28" fill="#f9a8d4"/>
  <circle cx="855" cy="345" r="24" fill="#93c5fd"/>
  <text x="512" y="950" text-anchor="middle" font-family="Arial, sans-serif" font-size="34" fill="#7c3aed">computermeisje voor Lisa en Vivian ✨</text>
</svg>
